<svg width="19" height="22" viewBox="0 0 19 22" fill="none" xmlns="http://www.w3.org/2000/svg">
<path d="M16.6275 16.8099H6.6923C5.38056 16.8099 4.31578 15.7191 4.31578 14.3753V2.43045C4.31983 1.0908 5.38461 0 6.6923 0H14.0405C14.8947 0 15.7287 0.352539 16.332 0.970519L18.0526 2.73321C18.664 3.35949 19 4.19314 19 5.08071V14.3794C19 15.7191 17.9352 16.8099 16.6275 16.8099ZM6.6923 1.32721C6.09716 1.32721 5.61133 1.82491 5.61133 2.43459V14.3794C5.61133 14.9891 6.09716 15.4868 6.6923 15.4868H16.6235C17.2186 15.4868 17.7044 14.9891 17.7044 14.3794V5.08071C17.7044 4.54983 17.502 4.04798 17.1336 3.6747L15.4129 1.91201C15.0526 1.53873 14.5506 1.32721 14.0405 1.32721H6.6923V1.32721Z" fill="#999999"/>
<path d="M12.7409 21.2354H2.37652C1.06478 21.2354 0 20.1446 0 18.8008V4.64529C0 3.30149 1.06478 2.21069 2.37652 2.21069H2.80972C3.16599 2.21069 3.45749 2.50931 3.45749 2.8743C3.45749 3.23928 3.16599 3.5379 2.80972 3.5379H2.37652C1.78138 3.5379 1.29555 4.0356 1.29555 4.64529V18.8008C1.29555 19.4105 1.78138 19.9082 2.37652 19.9082H12.7409C13.336 19.9082 13.8219 19.4105 13.8219 18.8008V18.357C13.8219 17.992 14.1134 17.6934 14.4696 17.6934C14.8259 17.6934 15.1174 17.992 15.1174 18.357V18.8008C15.1134 20.1446 14.0486 21.2354 12.7409 21.2354Z" fill="#999999"/>
<path d="M14.8988 7.51946H8.42104C8.06477 7.51946 7.77327 7.22084 7.77327 6.85586C7.77327 6.49087 8.06477 6.19225 8.42104 6.19225H14.8988C15.2551 6.19225 15.5466 6.49087 15.5466 6.85586C15.5466 7.22499 15.2551 7.51946 14.8988 7.51946Z" fill="#999999"/>
<path d="M14.8988 10.1739H8.42104C8.06477 10.1739 7.77327 9.87525 7.77327 9.51027C7.77327 9.14529 8.06477 8.84666 8.42104 8.84666H14.8988C15.2551 8.84666 15.5466 9.14529 15.5466 9.51027C15.5466 9.8794 15.2551 10.1739 14.8988 10.1739Z" fill="#999999"/>
<path d="M14.8988 12.8283H8.42104C8.06477 12.8283 7.77327 12.5296 7.77327 12.1647C7.77327 11.7997 8.06477 11.5011 8.42104 11.5011H14.8988C15.2551 11.5011 15.5466 11.7997 15.5466 12.1647C15.5466 12.5296 15.2551 12.8283 14.8988 12.8283Z" fill="#999999"/>
</svg>
