<svg width="31" height="29" viewBox="0 0 31 29" fill="none" xmlns="http://www.w3.org/2000/svg">
<rect x="11.5" y="11.5" width="8" height="8" stroke="black" stroke-opacity="0.1"/>
<rect x="1.5" y="0.5" width="29" height="27" stroke="black" stroke-opacity="0.33"/>
<path d="M8.3077 11.0401C8.3077 11.0401 7.74182 8.29205 6.74182 6.29205C5.74182 4.29205 4.37358 3.28815 4.37358 3.28815" stroke="black" stroke-width="0.11"/>
<path d="M3.5 2C3.13626 4.34783 4.04532 4.3913 4.5 4" stroke="black" stroke-width="0.11" stroke-linecap="round" stroke-linejoin="round"/>
<path d="M4 1.99999C6.21515 2.85889 6.09118 3.54838 5.52496 3.74649" stroke="black" stroke-width="0.11" stroke-linecap="round" stroke-linejoin="round"/>
<path d="M7.07755 16.6207C7.07755 16.6207 5.53453 18.964 4.82742 21.0853C4.12031 23.2067 4.37794 24.884 4.37794 24.884" stroke="black" stroke-width="0.11"/>
<path d="M4.0848 26.4126C6.00216 25.0097 5.3901 24.3361 4.7919 24.2913" stroke="black" stroke-width="0.11" stroke-linecap="round" stroke-linejoin="round"/>
<path d="M3.73124 26.0591C2.77223 23.8854 3.34743 23.4855 3.88789 23.7458" stroke="black" stroke-width="0.11" stroke-linecap="round" stroke-linejoin="round"/>
<path d="M20.7602 20.4458C20.7602 20.4458 22.6243 22.5427 24.4903 23.7748C26.3564 25.0068 28.0433 25.1921 28.0433 25.1921" stroke="black" stroke-width="0.11"/>
<path d="M29.4439 25.8709C28.585 23.6558 27.776 24.0726 27.5778 24.6389" stroke="black" stroke-width="0.11" stroke-linecap="round" stroke-linejoin="round"/>
<path d="M29.0109 26.1209C26.663 26.4847 26.4257 25.8256 26.817 25.3709" stroke="black" stroke-width="0.11" stroke-linecap="round" stroke-linejoin="round"/>
<path d="M20.266 10.0883C20.266 10.0883 22.774 8.83047 24.447 7.34691C26.1201 5.86335 26.7356 4.2819 26.7356 4.2819" stroke="black" stroke-width="0.11"/>
<path d="M27.7538 3.10469C25.3918 3.36101 25.5851 4.25035 26.0808 4.58826" stroke="black" stroke-width="0.11" stroke-linecap="round" stroke-linejoin="round"/>
<path d="M27.8832 3.58762C27.6269 5.94959 26.9288 6.00829 26.5909 5.51264" stroke="black" stroke-width="0.11" stroke-linecap="round" stroke-linejoin="round"/>
</svg>
